{"accessors":[{"bufferView":0,"byteOffset":0,"componentType":5126,"count":3315,"max":[23.5,6,3],"min":[-19,-2.000001,-41.700001],"normalized":false,"type":"VEC3"},{"bufferView":1,"byteOffset":0,"componentType":5126,"count":3315,"max":[1,1,1,1],"min":[-1,-1,-1,-1],"normalized":false,"type":"VEC4"},{"bufferView":2,"byteOffset":0,"componentType":5126,"count":3315,"max":[1,1,1],"min":[-1,-1,-1],"normalized":false,"type":"VEC3"},{"bufferView":3,"byteOffset":0,"componentType":5126,"count":3315,"max":[1,1],"min":[0,0],"normalized":false,"type":"VEC2"},{"bufferView":4,"byteOffset":0,"componentType":5125,"count":3315,"max":[3314],"min":[0],"normalized":false,"type":"SCALAR"}],"asset":{"generator":"Godot Engine v4.2.1.stable.mono.official@b09f793f564a6c95dc76acc654b390e68441bd01","version":"2.0"},"bufferViews":[{"buffer":0,"byteLength":39780,"byteOffset":0},{"buffer":0,"byteLength":53040,"byteOffset":39780},{"buffer":0,"byteLength":39780,"byteOffset":92820},{"buffer":0,"byteLength":26520,"byteOffset":132600},{"buffer":0,"byteLength":13260,"byteOffset":159120}],"buffers":[{"byteLength":172380,"uri":"MainLevel0.bin"}],"extensionsUsed":["GODOT_single_root"],"materials":[{}],"meshes":[{"extras":{"targetNames":[]},"primitives":[{"attributes":{"NORMAL":2,"POSITION":0,"TANGENT":1,"TEXCOORD_0":3},"indices":4,"material":0,"mode":4}]}],"nodes":[{"children":[1],"extensions":{},"name":"MainLevel"},{"children":[2],"extensions":{},"name":"LevelContents","scale":[1.5,1.5,1.5]},{"children":[3],"extensions":{},"mesh":0,"name":"SpawnRoom2","translation":[0,2,0]},{"children":[4,5,9,14,16,17,22,26,31,32,35,36,42,54,61,62],"extensions":{},"name":"EnterTheLevel"},{"extensions":{},"name":"Corridor1","translation":[0,-1,-6]},{"children":[6,7,8],"extensions":{},"name":"CentralRoom","rotation":[0.707106709480286,0,0,0.707106828689575],"translation":[-1,-2,-9]},{"extensions":{},"name":"Elevation2","rotation":[-0.70710676908493,0,0,0.70710676908493],"translation":[1,-11.5,-4]},{"extensions":{},"name":"Elevation1"},{"extensions":{},"name":"CSGPolygon3D","rotation":[0,0.70710676908493,0,0.70710676908493],"translation":[2.53332996368408,-3,-0.00000039340199]},{"children":[10,11,12,13],"extensions":{},"name":"Corridor2"},{"extensions":{},"name":"Corridor2-1","translation":[-3,-1,-21]},{"extensions":{},"name":"Corridor2-2","rotation":[0.70710676908493,0,0,0.70710676908493],"translation":[-7,-2,-22]},{"extensions":{},"name":"Corridor2-3","translation":[-7.5,0,-26]},{"extensions":{},"name":"CSGPolygon3D2","translation":[-10,0,-25]},{"children":[15],"extensions":{},"name":"Courtyard","translation":[-14.5,2.5,-24]},{"extensions":{},"name":"Elevation22","translation":[0,-2.66667008399963,0]},{"extensions":{},"name":"Corridor5","translation":[-11,1,-17]},{"children":[18],"extensions":{},"name":"Deadend","rotation":[0.70710676908493,0,0,0.70710676908493],"translation":[-12,0,-14]},{"children":[19,20,21],"extensions":{},"name":"Stairs4","rotation":[-0.70710676908493,0,0,0.70710676908493],"translation":[12,14,2]},{"extensions":{},"name":"CSGPolygon3D3","rotation":[0.70710676908493,0,0,0.70710676908493],"translation":[-15,1,-6]},{"extensions":{},"name":"CSGPolygon3D22","rotation":[0.70710676908493,0,0,0.70710676908493],"translation":[-15,1,-6]},{"extensions":{},"name":"CSGPolygon3D32","rotation":[0.70710676908493,0,0,0.70710676908493],"translation":[-15,1,-6]},{"children":[23,24,25],"extensions":{},"name":"Corridor6"},{"extensions":{},"name":"Corridor62","translation":[-14.5,2,-31]},{"extensions":{},"name":"CSGPolygon3D4","rotation":[0.70710676908493,0,0,0.70710676908493],"translation":[-15.5,2,-33.5]},{"extensions":{},"name":"CSGPolygon3D23","rotation":[0,-0.70710676908493,0,0.70710676908493],"translation":[-15.5,0,-30.5]},{"children":[27,28,29,30],"extensions":{},"name":"Corridor3"},{"extensions":{},"name":"Corridor3-1","translation":[3,-1,-21]},{"extensions":{},"name":"Corridor3-2","rotation":[0.70710676908493,0,0,0.70710676908493],"translation":[-1,-2,-22]},{"extensions":{},"name":"Corridor3-3","translation":[7.5,0,-26]},{"extensions":{},"name":"CSGPolygon3D5","translation":[8,-2,-25]},{"extensions":{},"name":"Corridor4","translation":[0,3,-24]},{"children":[33,34],"extensions":{},"name":"Corridor7"},{"extensions":{},"name":"CorridorBase","rotation":[0.70710676908493,0,0,0.70710676908493],"translation":[-1,2,-26]},{"extensions":{},"name":"Hole","translation":[0,0,-29]},{"extensions":{},"name":"Corridor8","translation":[0,3,-34]},{"children":[37,38,39,40,41],"extensions":{},"name":"LavaRoom","rotation":[0.70710676908493,0,0,0.70710676908493],"translation":[1,-2,-37]},{"extensions":{},"name":"CSGBox3D","rotation":[-0.70710676908493,0,0,0.70710676908493],"translation":[3,0.5,-2]},{"extensions":{},"name":"CSGBox3D2","rotation":[-0.70710676908493,0,0,0.70710676908493],"translation":[2.5,-3,-2]},{"extensions":{},"name":"CSGBox3D3","rotation":[-0.70710676908493,0,0,0.70710676908493],"translation":[-2,-3,-2]},{"extensions":{},"name":"CSGBox3D4","rotation":[-0.70710676908493,0,0,0.70710676908493],"translation":[-6,-3,-2]},{"extensions":{},"name":"CSGPolygon3D6","translation":[-1,1,1]},{"children":[43,44,45,46],"extensions":{},"name":"FinalStretch"},{"extensions":{},"name":"CSGBox3D5","translation":[13,2,-28]},{"extensions":{},"name":"CSGBox3D22","translation":[21,2,-10.25]},{"extensions":{},"name":"CSGPolygon3D7","rotation":[0.70710676908493,0,0,0.70710676908493],"translation":[17,-2,-23]},{"children":[47,48,49,50,51,52,53],"extensions":{},"name":"CSGCombiner3D"},{"extensions":{},"name":"CSGPolygon3D8","rotation":[0.70710676908493,0,0,0.70710676908493],"translation":[16,-3,-24]},{"extensions":{},"name":"CSGPolygon3D42","rotation":[0.70710676908493,0,0,0.70710676908493],"translation":[14,-3,-27]},{"extensions":{},"name":"CSGPolygon3D24","rotation":[0.70710676908493,0,0,0.70710676908493],"translation":[19,-3,-21]},{"extensions":{},"name":"CSGBox3D6","translation":[21,-1.5,-15.8332996368408]},{"extensions":{},"name":"CSGBox3D23","translation":[21,-1.5,-8]},{"extensions":{},"name":"CSGBox3D7","translation":[21,-0.25,-2.5]},{"extensions":{},"name":"CSGPolygon3D52","rotation":[0,0.70710676908493,0,0.70710676908493],"translation":[23.5,0,-5]},{"children":[55,56,57],"extensions":{},"name":"Corrider5"},{"extensions":{},"name":"Corridor10","translation":[9,3.5,-36]},{"extensions":{},"name":"Corridor9","translation":[12,2.5,-34]},{"children":[58,59,60],"extensions":{},"name":"Stairs42"},{"extensions":{},"name":"Corridor11","translation":[12,0.5,-36]},{"extensions":{},"name":"Corridor12","translation":[12,0.25,-34]},{"extensions":{},"name":"Corridor13","translation":[12,0,-32]},{"extensions":{},"name":"Window1","translation":[6.5,3,-29]},{"extensions":{},"name":"Window2","translation":[-8,1,-14.25]}],"scene":0,"scenes":[{"nodes":[0]}]}